<svg width="990" height="1002" viewBox="0 0 990 1002" fill="none" xmlns="http://www.w3.org/2000/svg">
<g opacity="0.15" filter="url(#filter0_f_1_18496)">
<path d="M370.928 534.372C404.758 433.789 381.792 332.702 319.631 308.586C257.469 284.471 179.653 346.46 145.822 447.042C111.991 547.625 134.958 648.712 197.119 672.827C259.28 696.943 337.097 634.954 370.928 534.372Z" fill="#EF4444"/>
<path d="M601.679 381.871C643.027 305.797 613.614 204.673 535.983 156.005C458.351 107.336 361.899 129.553 320.55 205.628C279.202 281.702 308.615 382.826 386.246 431.494C463.877 480.162 560.33 457.945 601.679 381.871Z" fill="#D946EF"/>
<path d="M827.371 476.032C888.359 363.824 860.095 224.147 764.241 164.055C668.386 103.963 541.241 146.21 480.252 258.418C419.264 370.626 447.529 510.303 543.383 570.395C639.237 630.487 766.383 588.24 827.371 476.032Z" fill="#6366F1"/>
<path d="M610.386 701.085C630.674 592.747 589.959 492.576 519.447 477.345C448.935 462.115 375.327 537.594 355.039 645.932C334.751 754.269 375.466 854.441 445.978 869.671C516.49 884.901 590.098 809.423 610.386 701.085Z" fill="#F59E0B"/>
</g>
<defs>
<filter id="filter0_f_1_18496" x="-1.52588e-05" y="0" width="989.758" height="1001.83" filterUnits="userSpaceOnUse" color-interpolation-filters="sRGB">
<feFlood flood-opacity="0" result="BackgroundImageFix"/>
<feBlend mode="normal" in="SourceGraphic" in2="BackgroundImageFix" result="shape"/>
<feGaussianBlur stdDeviation="65.1042" result="effect1_foregroundBlur_1_18496"/>
</filter>
</defs>
</svg>
