<svg width="1440" height="800" viewBox="0 0 1440 800" fill="none" xmlns="http://www.w3.org/2000/svg">
<mask id="mask0_0_18226" style="mask-type:alpha" maskUnits="userSpaceOnUse" x="0" y="-1" width="1440" height="801">
<rect y="-0.00012207" width="1440" height="800" fill="url(#paint0_radial_0_18226)"/>
</mask>
<g mask="url(#mask0_0_18226)">
<mask id="path-2-inside-1_0_18226" fill="white">
<path d="M0 -0.00012207H160V160H0V-0.00012207Z"/>
</mask>
<path d="M0 -0.00012207H160V160H0V-0.00012207Z" fill="white"/>
<path d="M160 160V161H161V160H160ZM160 -0.00012207H159V160H160H161V-0.00012207H160ZM160 160V159H0V160V161H160V160Z" fill="#E5E7EB" mask="url(#path-2-inside-1_0_18226)"/>
<mask id="path-4-inside-2_0_18226" fill="white">
<path d="M160 -0.00012207H320V160H160V-0.00012207Z"/>
</mask>
<path d="M160 -0.00012207H320V160H160V-0.00012207Z" fill="white"/>
<path d="M320 160V161H321V160H320ZM320 -0.00012207H319V160H320H321V-0.00012207H320ZM320 160V159H160V160V161H320V160Z" fill="#E5E7EB" mask="url(#path-4-inside-2_0_18226)"/>
<mask id="path-6-inside-3_0_18226" fill="white">
<path d="M320 -0.00012207H480V160H320V-0.00012207Z"/>
</mask>
<path d="M320 -0.00012207H480V160H320V-0.00012207Z" fill="white"/>
<path d="M480 160V161H481V160H480ZM480 -0.00012207H479V160H480H481V-0.00012207H480ZM480 160V159H320V160V161H480V160Z" fill="#E5E7EB" mask="url(#path-6-inside-3_0_18226)"/>
<mask id="path-8-inside-4_0_18226" fill="white">
<path d="M480 -0.00012207H640V160H480V-0.00012207Z"/>
</mask>
<path d="M480 -0.00012207H640V160H480V-0.00012207Z" fill="white"/>
<path d="M640 160V161H641V160H640ZM640 -0.00012207H639V160H640H641V-0.00012207H640ZM640 160V159H480V160V161H640V160Z" fill="#E5E7EB" mask="url(#path-8-inside-4_0_18226)"/>
<mask id="path-10-inside-5_0_18226" fill="white">
<path d="M640 -0.00012207H800V160H640V-0.00012207Z"/>
</mask>
<path d="M640 -0.00012207H800V160H640V-0.00012207Z" fill="white"/>
<path d="M800 160V161H801V160H800ZM800 -0.00012207H799V160H800H801V-0.00012207H800ZM800 160V159H640V160V161H800V160Z" fill="#E5E7EB" mask="url(#path-10-inside-5_0_18226)"/>
<mask id="path-12-inside-6_0_18226" fill="white">
<path d="M800 -0.00012207H960V160H800V-0.00012207Z"/>
</mask>
<path d="M800 -0.00012207H960V160H800V-0.00012207Z" fill="white"/>
<path d="M960 160V161H961V160H960ZM960 -0.00012207H959V160H960H961V-0.00012207H960ZM960 160V159H800V160V161H960V160Z" fill="#E5E7EB" mask="url(#path-12-inside-6_0_18226)"/>
<mask id="path-14-inside-7_0_18226" fill="white">
<path d="M960 -0.00012207H1120V160H960V-0.00012207Z"/>
</mask>
<path d="M960 -0.00012207H1120V160H960V-0.00012207Z" fill="white"/>
<path d="M1120 160V161H1121V160H1120ZM1120 -0.00012207H1119V160H1120H1121V-0.00012207H1120ZM1120 160V159H960V160V161H1120V160Z" fill="#E5E7EB" mask="url(#path-14-inside-7_0_18226)"/>
<mask id="path-16-inside-8_0_18226" fill="white">
<path d="M1120 -0.00012207H1280V160H1120V-0.00012207Z"/>
</mask>
<path d="M1120 -0.00012207H1280V160H1120V-0.00012207Z" fill="white"/>
<path d="M1280 160V161H1281V160H1280ZM1280 -0.00012207H1279V160H1280H1281V-0.00012207H1280ZM1280 160V159H1120V160V161H1280V160Z" fill="#E5E7EB" mask="url(#path-16-inside-8_0_18226)"/>
<mask id="path-18-inside-9_0_18226" fill="white">
<path d="M1280 -0.00012207H1440V160H1280V-0.00012207Z"/>
</mask>
<path d="M1280 -0.00012207H1440V160H1280V-0.00012207Z" fill="white"/>
<path d="M1440 160V159H1280V160V161H1440V160Z" fill="#E5E7EB" mask="url(#path-18-inside-9_0_18226)"/>
<mask id="path-20-inside-10_0_18226" fill="white">
<path d="M0 160H160V320H0V160Z"/>
</mask>
<path d="M0 160H160V320H0V160Z" fill="white"/>
<path d="M160 320V321H161V320H160ZM160 160H159V320H160H161V160H160ZM160 320V319H0V320V321H160V320Z" fill="#E5E7EB" mask="url(#path-20-inside-10_0_18226)"/>
<mask id="path-22-inside-11_0_18226" fill="white">
<path d="M160 160H320V320H160V160Z"/>
</mask>
<path d="M160 160H320V320H160V160Z" fill="white"/>
<path d="M320 320V321H321V320H320ZM320 160H319V320H320H321V160H320ZM320 320V319H160V320V321H320V320Z" fill="#E5E7EB" mask="url(#path-22-inside-11_0_18226)"/>
<mask id="path-24-inside-12_0_18226" fill="white">
<path d="M320 160H480V320H320V160Z"/>
</mask>
<path d="M320 160H480V320H320V160Z" fill="white"/>
<path d="M480 320V321H481V320H480ZM480 160H479V320H480H481V160H480ZM480 320V319H320V320V321H480V320Z" fill="#E5E7EB" mask="url(#path-24-inside-12_0_18226)"/>
<mask id="path-26-inside-13_0_18226" fill="white">
<path d="M480 160H640V320H480V160Z"/>
</mask>
<path d="M480 160H640V320H480V160Z" fill="white"/>
<path d="M640 320V321H641V320H640ZM640 160H639V320H640H641V160H640ZM640 320V319H480V320V321H640V320Z" fill="#E5E7EB" mask="url(#path-26-inside-13_0_18226)"/>
<mask id="path-28-inside-14_0_18226" fill="white">
<path d="M640 160H800V320H640V160Z"/>
</mask>
<path d="M640 160H800V320H640V160Z" fill="white"/>
<path d="M800 320V321H801V320H800ZM800 160H799V320H800H801V160H800ZM800 320V319H640V320V321H800V320Z" fill="#E5E7EB" mask="url(#path-28-inside-14_0_18226)"/>
<mask id="path-30-inside-15_0_18226" fill="white">
<path d="M800 160H960V320H800V160Z"/>
</mask>
<path d="M800 160H960V320H800V160Z" fill="#F9FAFB"/>
<path d="M960 320V321H961V320H960ZM960 160H959V320H960H961V160H960ZM960 320V319H800V320V321H960V320Z" fill="#E5E7EB" mask="url(#path-30-inside-15_0_18226)"/>
<mask id="path-32-inside-16_0_18226" fill="white">
<path d="M960 160H1120V320H960V160Z"/>
</mask>
<path d="M960 160H1120V320H960V160Z" fill="white"/>
<path d="M1120 320V321H1121V320H1120ZM1120 160H1119V320H1120H1121V160H1120ZM1120 320V319H960V320V321H1120V320Z" fill="#E5E7EB" mask="url(#path-32-inside-16_0_18226)"/>
<mask id="path-34-inside-17_0_18226" fill="white">
<path d="M1120 160H1280V320H1120V160Z"/>
</mask>
<path d="M1120 160H1280V320H1120V160Z" fill="white"/>
<path d="M1280 320V321H1281V320H1280ZM1280 160H1279V320H1280H1281V160H1280ZM1280 320V319H1120V320V321H1280V320Z" fill="#E5E7EB" mask="url(#path-34-inside-17_0_18226)"/>
<mask id="path-36-inside-18_0_18226" fill="white">
<path d="M1280 160H1440V320H1280V160Z"/>
</mask>
<path d="M1280 160H1440V320H1280V160Z" fill="white"/>
<path d="M1440 320V319H1280V320V321H1440V320Z" fill="#E5E7EB" mask="url(#path-36-inside-18_0_18226)"/>
<mask id="path-38-inside-19_0_18226" fill="white">
<path d="M0 320H160V480H0V320Z"/>
</mask>
<path d="M0 320H160V480H0V320Z" fill="white"/>
<path d="M160 480V481H161V480H160ZM160 320H159V480H160H161V320H160ZM160 480V479H0V480V481H160V480Z" fill="#E5E7EB" mask="url(#path-38-inside-19_0_18226)"/>
<mask id="path-40-inside-20_0_18226" fill="white">
<path d="M160 320H320V480H160V320Z"/>
</mask>
<path d="M160 320H320V480H160V320Z" fill="white"/>
<path d="M320 480V481H321V480H320ZM320 320H319V480H320H321V320H320ZM320 480V479H160V480V481H320V480Z" fill="#E5E7EB" mask="url(#path-40-inside-20_0_18226)"/>
<mask id="path-42-inside-21_0_18226" fill="white">
<path d="M320 320H480V480H320V320Z"/>
</mask>
<path d="M320 320H480V480H320V320Z" fill="white"/>
<path d="M480 480V481H481V480H480ZM480 320H479V480H480H481V320H480ZM480 480V479H320V480V481H480V480Z" fill="#E5E7EB" mask="url(#path-42-inside-21_0_18226)"/>
<mask id="path-44-inside-22_0_18226" fill="white">
<path d="M480 320H640V480H480V320Z"/>
</mask>
<path d="M480 320H640V480H480V320Z" fill="white"/>
<path d="M640 480V481H641V480H640ZM640 320H639V480H640H641V320H640ZM640 480V479H480V480V481H640V480Z" fill="#E5E7EB" mask="url(#path-44-inside-22_0_18226)"/>
<mask id="path-46-inside-23_0_18226" fill="white">
<path d="M640 320H800V480H640V320Z"/>
</mask>
<path d="M640 320H800V480H640V320Z" fill="white"/>
<path d="M800 480V481H801V480H800ZM800 320H799V480H800H801V320H800ZM800 480V479H640V480V481H800V480Z" fill="#E5E7EB" mask="url(#path-46-inside-23_0_18226)"/>
<mask id="path-48-inside-24_0_18226" fill="white">
<path d="M800 320H960V480H800V320Z"/>
</mask>
<path d="M800 320H960V480H800V320Z" fill="white"/>
<path d="M960 480V481H961V480H960ZM960 320H959V480H960H961V320H960ZM960 480V479H800V480V481H960V480Z" fill="#E5E7EB" mask="url(#path-48-inside-24_0_18226)"/>
<mask id="path-50-inside-25_0_18226" fill="white">
<path d="M960 320H1120V480H960V320Z"/>
</mask>
<path d="M960 320H1120V480H960V320Z" fill="white"/>
<path d="M1120 480V481H1121V480H1120ZM1120 320H1119V480H1120H1121V320H1120ZM1120 480V479H960V480V481H1120V480Z" fill="#E5E7EB" mask="url(#path-50-inside-25_0_18226)"/>
<mask id="path-52-inside-26_0_18226" fill="white">
<path d="M1120 320H1280V480H1120V320Z"/>
</mask>
<path d="M1120 320H1280V480H1120V320Z" fill="white"/>
<path d="M1280 480V481H1281V480H1280ZM1280 320H1279V480H1280H1281V320H1280ZM1280 480V479H1120V480V481H1280V480Z" fill="#E5E7EB" mask="url(#path-52-inside-26_0_18226)"/>
<mask id="path-54-inside-27_0_18226" fill="white">
<path d="M1280 320H1440V480H1280V320Z"/>
</mask>
<path d="M1280 320H1440V480H1280V320Z" fill="white"/>
<path d="M1440 480V479H1280V480V481H1440V480Z" fill="#E5E7EB" mask="url(#path-54-inside-27_0_18226)"/>
<mask id="path-56-inside-28_0_18226" fill="white">
<path d="M0 480H160V640H0V480Z"/>
</mask>
<path d="M0 480H160V640H0V480Z" fill="white"/>
<path d="M160 640V641H161V640H160ZM160 480H159V640H160H161V480H160ZM160 640V639H0V640V641H160V640Z" fill="#E5E7EB" mask="url(#path-56-inside-28_0_18226)"/>
<mask id="path-58-inside-29_0_18226" fill="white">
<path d="M160 480H320V640H160V480Z"/>
</mask>
<path d="M160 480H320V640H160V480Z" fill="white"/>
<path d="M320 640V641H321V640H320ZM320 480H319V640H320H321V480H320ZM320 640V639H160V640V641H320V640Z" fill="#E5E7EB" mask="url(#path-58-inside-29_0_18226)"/>
<mask id="path-60-inside-30_0_18226" fill="white">
<path d="M320 480H480V640H320V480Z"/>
</mask>
<path d="M320 480H480V640H320V480Z" fill="#F9FAFB"/>
<path d="M480 640V641H481V640H480ZM480 480H479V640H480H481V480H480ZM480 640V639H320V640V641H480V640Z" fill="#E5E7EB" mask="url(#path-60-inside-30_0_18226)"/>
<mask id="path-62-inside-31_0_18226" fill="white">
<path d="M480 480H640V640H480V480Z"/>
</mask>
<path d="M480 480H640V640H480V480Z" fill="white"/>
<path d="M640 640V641H641V640H640ZM640 480H639V640H640H641V480H640ZM640 640V639H480V640V641H640V640Z" fill="#E5E7EB" mask="url(#path-62-inside-31_0_18226)"/>
<mask id="path-64-inside-32_0_18226" fill="white">
<path d="M640 480H800V640H640V480Z"/>
</mask>
<path d="M640 480H800V640H640V480Z" fill="white"/>
<path d="M800 640V641H801V640H800ZM800 480H799V640H800H801V480H800ZM800 640V639H640V640V641H800V640Z" fill="#E5E7EB" mask="url(#path-64-inside-32_0_18226)"/>
<mask id="path-66-inside-33_0_18226" fill="white">
<path d="M800 480H960V640H800V480Z"/>
</mask>
<path d="M800 480H960V640H800V480Z" fill="white"/>
<path d="M960 640V641H961V640H960ZM960 480H959V640H960H961V480H960ZM960 640V639H800V640V641H960V640Z" fill="#E5E7EB" mask="url(#path-66-inside-33_0_18226)"/>
<mask id="path-68-inside-34_0_18226" fill="white">
<path d="M960 480H1120V640H960V480Z"/>
</mask>
<path d="M960 480H1120V640H960V480Z" fill="white"/>
<path d="M1120 640V641H1121V640H1120ZM1120 480H1119V640H1120H1121V480H1120ZM1120 640V639H960V640V641H1120V640Z" fill="#E5E7EB" mask="url(#path-68-inside-34_0_18226)"/>
<mask id="path-70-inside-35_0_18226" fill="white">
<path d="M1120 480H1280V640H1120V480Z"/>
</mask>
<path d="M1120 480H1280V640H1120V480Z" fill="#F9FAFB"/>
<path d="M1280 640V641H1281V640H1280ZM1280 480H1279V640H1280H1281V480H1280ZM1280 640V639H1120V640V641H1280V640Z" fill="#E5E7EB" mask="url(#path-70-inside-35_0_18226)"/>
<mask id="path-72-inside-36_0_18226" fill="white">
<path d="M1280 480H1440V640H1280V480Z"/>
</mask>
<path d="M1280 480H1440V640H1280V480Z" fill="white"/>
<path d="M1440 640V639H1280V640V641H1440V640Z" fill="#E5E7EB" mask="url(#path-72-inside-36_0_18226)"/>
<mask id="path-74-inside-37_0_18226" fill="white">
<path d="M0 640H160V800H0V640Z"/>
</mask>
<path d="M0 640H160V800H0V640Z" fill="white"/>
<path d="M160 800V801H161V800H160ZM160 640H159V800H160H161V640H160ZM160 800V799H0V800V801H160V800Z" fill="#E5E7EB" mask="url(#path-74-inside-37_0_18226)"/>
<mask id="path-76-inside-38_0_18226" fill="white">
<path d="M160 640H320V800H160V640Z"/>
</mask>
<path d="M160 640H320V800H160V640Z" fill="white"/>
<path d="M320 800V801H321V800H320ZM320 640H319V800H320H321V640H320ZM320 800V799H160V800V801H320V800Z" fill="#E5E7EB" mask="url(#path-76-inside-38_0_18226)"/>
<mask id="path-78-inside-39_0_18226" fill="white">
<path d="M320 640H480V800H320V640Z"/>
</mask>
<path d="M320 640H480V800H320V640Z" fill="white"/>
<path d="M480 800V801H481V800H480ZM480 640H479V800H480H481V640H480ZM480 800V799H320V800V801H480V800Z" fill="#E5E7EB" mask="url(#path-78-inside-39_0_18226)"/>
<mask id="path-80-inside-40_0_18226" fill="white">
<path d="M480 640H640V800H480V640Z"/>
</mask>
<path d="M480 640H640V800H480V640Z" fill="white"/>
<path d="M640 800V801H641V800H640ZM640 640H639V800H640H641V640H640ZM640 800V799H480V800V801H640V800Z" fill="#E5E7EB" mask="url(#path-80-inside-40_0_18226)"/>
<mask id="path-82-inside-41_0_18226" fill="white">
<path d="M640 640H800V800H640V640Z"/>
</mask>
<path d="M640 640H800V800H640V640Z" fill="white"/>
<path d="M800 800V801H801V800H800ZM800 640H799V800H800H801V640H800ZM800 800V799H640V800V801H800V800Z" fill="#E5E7EB" mask="url(#path-82-inside-41_0_18226)"/>
<mask id="path-84-inside-42_0_18226" fill="white">
<path d="M800 640H960V800H800V640Z"/>
</mask>
<path d="M800 640H960V800H800V640Z" fill="white"/>
<path d="M960 800V801H961V800H960ZM960 640H959V800H960H961V640H960ZM960 800V799H800V800V801H960V800Z" fill="#E5E7EB" mask="url(#path-84-inside-42_0_18226)"/>
<mask id="path-86-inside-43_0_18226" fill="white">
<path d="M960 640H1120V800H960V640Z"/>
</mask>
<path d="M960 640H1120V800H960V640Z" fill="white"/>
<path d="M1120 800V801H1121V800H1120ZM1120 640H1119V800H1120H1121V640H1120ZM1120 800V799H960V800V801H1120V800Z" fill="#E5E7EB" mask="url(#path-86-inside-43_0_18226)"/>
<mask id="path-88-inside-44_0_18226" fill="white">
<path d="M1120 640H1280V800H1120V640Z"/>
</mask>
<path d="M1120 640H1280V800H1120V640Z" fill="white"/>
<path d="M1280 800V801H1281V800H1280ZM1280 640H1279V800H1280H1281V640H1280ZM1280 800V799H1120V800V801H1280V800Z" fill="#E5E7EB" mask="url(#path-88-inside-44_0_18226)"/>
<mask id="path-90-inside-45_0_18226" fill="white">
<path d="M1280 640H1440V800H1280V640Z"/>
</mask>
<path d="M1280 640H1440V800H1280V640Z" fill="white"/>
<path d="M1440 800V799H1280V800V801H1440V800Z" fill="#E5E7EB" mask="url(#path-90-inside-45_0_18226)"/>
</g>
<defs>
<radialGradient id="paint0_radial_0_18226" cx="0" cy="0" r="1" gradientUnits="userSpaceOnUse" gradientTransform="translate(720 400) rotate(90) scale(400 720)">
<stop stop-color="white"/>
<stop offset="1" stop-color="white" stop-opacity="0"/>
</radialGradient>
</defs>
</svg>
