<svg width="32" height="32" viewBox="0 0 32 32" fill="none" xmlns="http://www.w3.org/2000/svg">
<path d="M1.74216 10.1913C4.95024 2.31691 13.9343 -1.46586 21.8087 1.74221C29.683 4.95029 33.4658 13.9344 30.2577 21.8087C27.0497 29.6831 18.0656 33.4659 10.1912 30.2578C2.31686 27.0497 -1.46591 18.0656 1.74216 10.1913Z" fill="url(#paint0_linear_0_18230)"/>
<path d="M6 16C6 10.4772 10.4772 6 16 6C21.5228 6 26 10.4772 26 16C26 21.5228 21.5228 26 16 26C10.4772 26 6 21.5228 6 16Z" fill="white"/>
<path d="M6 16C6 10.4772 10.4772 6 16 6C21.5228 6 26 10.4772 26 16C26 21.5228 21.5228 26 16 26C10.4772 26 6 21.5228 6 16Z" fill="white"/>
<path d="M9.88068 10.3636H13.3636L16.3182 17.5682H16.4545L19.4091 10.3636H22.892V22H20.1534V14.8523H20.0568L17.2614 21.9261H15.5114L12.7159 14.8125H12.6193V22H9.88068V10.3636Z" fill="#58A8F5"/>
<defs>
<linearGradient id="paint0_linear_0_18230" x1="16.6123" y1="0.612341" x2="15.3876" y2="31.3877" gradientUnits="userSpaceOnUse">
<stop stop-color="#0072DE"/>
<stop offset="1" stop-color="#80C1FF"/>
</linearGradient>
</defs>
</svg>
